<svg width="12" height="12" viewBox="0 0 12 12" fill="none" xmlns="http://www.w3.org/2000/svg">
<path d="M6.669 0.259884C6.48537 0.0925764 6.24706 0 6 0C5.75294 0 5.51463 0.0925764 5.331 0.259884L0 5.11668V10.3804C0 10.8099 0.168571 11.2219 0.468629 11.5256C0.768687 11.8294 1.17565 12 1.6 12H10.4C10.8243 12 11.2313 11.8294 11.5314 11.5256C11.8314 11.2219 12 10.8099 12 10.3804V5.11668L6.669 0.259884ZM7.5 10.9862H4.5V8.44244C4.5 8.03974 4.65804 7.65353 4.93934 7.36878C5.22064 7.08403 5.60218 6.92406 6 6.92406C6.39782 6.92406 6.77936 7.08403 7.06066 7.36878C7.34196 7.65353 7.5 8.03974 7.5 8.44244V10.9862ZM11 10.3789C11 10.54 10.9368 10.6944 10.8243 10.8083C10.7117 10.9222 10.5591 10.9862 10.4 10.9862H8.5V8.44244C8.5 7.77127 8.23661 7.12759 7.76777 6.65301C7.29893 6.17842 6.66304 5.9118 6 5.9118C5.33696 5.9118 4.70107 6.17842 4.23223 6.65301C3.76339 7.12759 3.5 7.77127 3.5 8.44244V10.9862H1.6C1.44087 10.9862 1.28826 10.9222 1.17574 10.8083C1.06321 10.6944 1 10.54 1 10.3789V5.56713L6 1.01199L11 5.56713V10.3789Z" fill="#6B7688"/>
</svg>
