<svg width="32" height="32" viewBox="0 0 32 32" fill="none" xmlns="http://www.w3.org/2000/svg">
<circle cx="16" cy="16" r="16" fill="#0038B1"/>
<path d="M17.115 5.43314C16.809 5.15429 16.4118 5 16 5C15.5882 5 15.191 5.15429 14.885 5.43314L6 13.5278V22.3007C6 23.0166 6.28095 23.7032 6.78105 24.2094C7.28115 24.7156 7.95942 25 8.66667 25H23.3333C24.0406 25 24.7189 24.7156 25.219 24.2094C25.719 23.7032 26 23.0166 26 22.3007V13.5278L17.115 5.43314ZM18.5 23.3104H13.5V19.0707C13.5 18.3996 13.7634 17.7559 14.2322 17.2813C14.7011 16.8067 15.337 16.5401 16 16.5401C16.663 16.5401 17.2989 16.8067 17.7678 17.2813C18.2366 17.7559 18.5 18.3996 18.5 19.0707V23.3104ZM24.3333 22.2981C24.3333 22.5666 24.228 22.8241 24.0404 23.0139C23.8529 23.2037 23.5985 23.3104 23.3333 23.3104H20.1667V19.0707C20.1667 17.9521 19.7277 16.8793 18.9463 16.0883C18.1649 15.2974 17.1051 14.853 16 14.853C14.8949 14.853 13.8351 15.2974 13.0537 16.0883C12.2723 16.8793 11.8333 17.9521 11.8333 19.0707V23.3104H8.66667C8.40145 23.3104 8.1471 23.2037 7.95956 23.0139C7.77202 22.8241 7.66667 22.5666 7.66667 22.2981V14.2785L16 6.68665L24.3333 14.2785V22.2981Z" fill="white"/>
</svg>
